<svg xmlns="http://www.w3.org/2000/svg" id="Capa_1" data-name="Capa 1" viewBox="67.83 115.22 480.17 201.86"><defs><style>.cls-1,.cls-2{fill:#fff;}.cls-2{fill-rule:evenodd;}</style></defs><path class="cls-1" d="M286,132.83h5.12V155.2a26.39,26.39,0,0,1-1.32,9.26,11.31,11.31,0,0,1-4.76,5.59A17,17,0,0,1,276,172.2a18.62,18.62,0,0,1-8.9-1.87,10.69,10.69,0,0,1-4.93-5.43,25.76,25.76,0,0,1-1.48-9.7V132.83h5.12v22.34a21.61,21.61,0,0,0,.94,7.43,7.12,7.12,0,0,0,3.22,3.69,11.18,11.18,0,0,0,5.58,1.29c3.77,0,6.45-.85,8.06-2.56s2.4-5,2.4-9.85Z"/><path class="cls-1" d="M299.7,171.54v-28H304v4a10.07,10.07,0,0,1,8.92-4.62,11.63,11.63,0,0,1,4.66.91,7.27,7.27,0,0,1,3.18,2.39,9,9,0,0,1,1.48,3.51,26.61,26.61,0,0,1,.27,4.62v17.24h-4.76V154.48a12.82,12.82,0,0,0-.55-4.34,4.62,4.62,0,0,0-2-2.3,6.25,6.25,0,0,0-3.31-.85,7.72,7.72,0,0,0-5.24,1.92q-2.21,1.93-2.21,7.32v15.31Z"/><path class="cls-1" d="M330.45,138.3v-5.47h4.75v5.47Zm0,33.24v-28h4.75v28Z"/><path class="cls-1" d="M350.87,171.54l-10.66-28h5l6,16.79q1,2.73,1.8,5.65c.42-1.48,1-3.25,1.77-5.33L361,143.5h4.88l-10.61,28Z"/><path class="cls-1" d="M390,162.51l4.91.61a12,12,0,0,1-4.31,6.68,13,13,0,0,1-8,2.37q-6.15,0-9.76-3.78t-3.6-10.63q0-7.08,3.64-11a12.32,12.32,0,0,1,9.45-3.91,12,12,0,0,1,9.19,3.83q3.57,3.83,3.57,10.77c0,.28,0,.7,0,1.27H374.1a10.77,10.77,0,0,0,2.61,7.07,7.78,7.78,0,0,0,5.86,2.46,7.27,7.27,0,0,0,4.47-1.38A9.13,9.13,0,0,0,390,162.51Zm-15.61-7.68H390a9.47,9.47,0,0,0-1.8-5.31,7.26,7.26,0,0,0-5.88-2.74,7.56,7.56,0,0,0-5.51,2.19A8.66,8.66,0,0,0,374.36,154.83Z"/><path class="cls-1" d="M401.44,171.54v-28h4.28v4.25a11.56,11.56,0,0,1,3-3.93,5.24,5.24,0,0,1,3.05-.95,9.31,9.31,0,0,1,4.89,1.53L415,148.81a6.76,6.76,0,0,0-3.49-1,4.52,4.52,0,0,0-2.8.94,5.07,5.07,0,0,0-1.76,2.6,18.4,18.4,0,0,0-.8,5.54v14.68Z"/><path class="cls-1" d="M418.25,163.17l4.7-.74a6.55,6.55,0,0,0,2.2,4.33,7.66,7.66,0,0,0,5.06,1.51,7.44,7.44,0,0,0,4.86-1.34,4,4,0,0,0,1.58-3.13,2.87,2.87,0,0,0-1.4-2.53,20.64,20.64,0,0,0-4.86-1.61,44.46,44.46,0,0,1-7.24-2.28A6.91,6.91,0,0,1,419,151a7.29,7.29,0,0,1,.86-3.48,7.73,7.73,0,0,1,2.34-2.65,9.79,9.79,0,0,1,3-1.39,14.61,14.61,0,0,1,4.1-.56,16.1,16.1,0,0,1,5.8.95,7.86,7.86,0,0,1,3.68,2.57,10.08,10.08,0,0,1,1.64,4.35l-4.65.63A5.09,5.09,0,0,0,434,148a6.7,6.7,0,0,0-4.29-1.21c-2.19,0-3.74.36-4.68,1.08a3.15,3.15,0,0,0-1.4,2.53,2.64,2.64,0,0,0,.59,1.67,4.09,4.09,0,0,0,1.82,1.26c.47.18,1.87.58,4.2,1.22a59.47,59.47,0,0,1,7,2.2,7.16,7.16,0,0,1,3.13,2.5,6.92,6.92,0,0,1,1.14,4.06,8,8,0,0,1-1.39,4.48,9,9,0,0,1-4,3.25,14.63,14.63,0,0,1-5.91,1.14c-3.65,0-6.43-.75-8.34-2.27A10.58,10.58,0,0,1,418.25,163.17Z"/><path class="cls-1" d="M447.86,138.3v-5.47h4.75v5.47Zm0,33.24v-28h4.75v28Z"/><path class="cls-1" d="M478.69,171.54V168a8.72,8.72,0,0,1-7.84,4.17,11,11,0,0,1-6.17-1.84,12.18,12.18,0,0,1-4.35-5.17,17.77,17.77,0,0,1-1.55-7.61,20,20,0,0,1,1.4-7.62,11,11,0,0,1,4.2-5.24,11.16,11.16,0,0,1,6.26-1.82,9.25,9.25,0,0,1,4.51,1.07,9.46,9.46,0,0,1,3.22,2.78V132.83h4.73v38.71Zm-15-14c0,3.59.75,6.27,2.27,8a6.84,6.84,0,0,0,5.36,2.67,6.72,6.72,0,0,0,5.29-2.55q2.18-2.55,2.18-7.78,0-5.74-2.22-8.45a6.83,6.83,0,0,0-5.46-2.69,6.58,6.58,0,0,0-5.3,2.59C464.37,151.11,463.67,153.83,463.67,157.55Z"/><path class="cls-1" d="M509.52,168.08a17.71,17.71,0,0,1-5.09,3.17,14.55,14.55,0,0,1-5.24.92c-3.08,0-5.44-.75-7.1-2.25a7.48,7.48,0,0,1-2.48-5.77,7.6,7.6,0,0,1,.94-3.76,7.73,7.73,0,0,1,2.45-2.74,11.59,11.59,0,0,1,3.42-1.55,33.06,33.06,0,0,1,4.23-.72,44,44,0,0,0,8.47-1.63c0-.66,0-1.07,0-1.25,0-1.93-.45-3.3-1.35-4.09a8,8,0,0,0-5.41-1.61,8.32,8.32,0,0,0-4.95,1.18,7.15,7.15,0,0,0-2.37,4.15l-4.64-.63a11.62,11.62,0,0,1,2.08-4.82,9.18,9.18,0,0,1,4.2-2.82,18.73,18.73,0,0,1,6.37-1,16.93,16.93,0,0,1,5.83.84,7.65,7.65,0,0,1,3.3,2.13,7.48,7.48,0,0,1,1.48,3.23,26.54,26.54,0,0,1,.24,4.39v6.33a68,68,0,0,0,.3,8.38,10.39,10.39,0,0,0,1.2,3.37h-5A10.09,10.09,0,0,1,509.52,168.08Zm-.4-10.61a34.89,34.89,0,0,1-7.76,1.79,18.65,18.65,0,0,0-4.15,1,4.16,4.16,0,0,0-1.87,1.55,4.19,4.19,0,0,0,.78,5.42,6.16,6.16,0,0,0,4.21,1.27,9.78,9.78,0,0,0,4.88-1.2,7.4,7.4,0,0,0,3.15-3.29,11.46,11.46,0,0,0,.76-4.75Z"/><path class="cls-1" d="M540.13,171.54V168a8.71,8.71,0,0,1-7.84,4.17,11,11,0,0,1-6.16-1.84,12.13,12.13,0,0,1-4.36-5.17,17.77,17.77,0,0,1-1.54-7.61,19.81,19.81,0,0,1,1.4-7.62,11,11,0,0,1,4.19-5.24,11.19,11.19,0,0,1,6.26-1.82,9.29,9.29,0,0,1,4.52,1.07,9.46,9.46,0,0,1,3.22,2.78V132.83h4.72v38.71Zm-15-14q0,5.38,2.27,8a6.84,6.84,0,0,0,5.36,2.67,6.7,6.7,0,0,0,5.29-2.55c1.46-1.7,2.18-4.29,2.18-7.78q0-5.74-2.22-8.45a6.82,6.82,0,0,0-5.46-2.69,6.56,6.56,0,0,0-5.29,2.59Q525.11,152,525.11,157.55Z"/><path class="cls-1" d="M261.12,234.33V195.62h5.26L286.71,226V195.62h4.91v38.71h-5.26L266,203.91v30.42Z"/><path class="cls-1" d="M318.56,230.87a17.67,17.67,0,0,1-5.08,3.17,14.8,14.8,0,0,1-5.24.92q-4.62,0-7.1-2.26a7.41,7.41,0,0,1-2.48-5.77,7.73,7.73,0,0,1,.93-3.76,7.91,7.91,0,0,1,2.46-2.73,11.36,11.36,0,0,1,3.42-1.56,35.5,35.5,0,0,1,4.22-.71,43.22,43.22,0,0,0,8.48-1.64c0-.65,0-1.06,0-1.24,0-1.93-.45-3.3-1.34-4.09a7.93,7.93,0,0,0-5.41-1.61,8.46,8.46,0,0,0-5,1.17,7.22,7.22,0,0,0-2.36,4.16l-4.65-.63a11.57,11.57,0,0,1,2.09-4.82,9.19,9.19,0,0,1,4.2-2.83,18.71,18.71,0,0,1,6.36-1,16.93,16.93,0,0,1,5.84.85,7.76,7.76,0,0,1,3.3,2.12,7.57,7.57,0,0,1,1.47,3.24,26.48,26.48,0,0,1,.24,4.38v6.34a65.14,65.14,0,0,0,.31,8.38,10.56,10.56,0,0,0,1.2,3.37h-5A10.16,10.16,0,0,1,318.56,230.87Zm-.39-10.62a34.52,34.52,0,0,1-7.76,1.8,18,18,0,0,0-4.15.95,4.15,4.15,0,0,0-1.1,7,6.19,6.19,0,0,0,4.22,1.27,9.81,9.81,0,0,0,4.88-1.2,7.38,7.38,0,0,0,3.14-3.29,11.47,11.47,0,0,0,.77-4.75Z"/><path class="cls-1" d="M349.29,224.06l4.67.6a12.12,12.12,0,0,1-3.92,7.57,11.45,11.45,0,0,1-7.75,2.73A12.05,12.05,0,0,1,333,231.2q-3.5-3.76-3.49-10.79a19.56,19.56,0,0,1,1.5-7.94,10.46,10.46,0,0,1,4.58-5.11,13.55,13.55,0,0,1,6.7-1.71,11.65,11.65,0,0,1,7.47,2.31,10.65,10.65,0,0,1,3.72,6.56l-4.62.72a7.67,7.67,0,0,0-2.34-4.25,6.06,6.06,0,0,0-4.05-1.43,7.39,7.39,0,0,0-5.84,2.58c-1.49,1.71-2.24,4.43-2.24,8.14s.72,6.51,2.17,8.21a7,7,0,0,0,5.65,2.56,6.68,6.68,0,0,0,4.67-1.71A8.58,8.58,0,0,0,349.29,224.06Z"/><path class="cls-1" d="M358.7,201.09v-5.47h4.75v5.47Zm0,33.24v-28h4.75v28Z"/><path class="cls-1" d="M369.57,220.31q0-7.78,4.33-11.54a13,13,0,0,1,8.82-3.12,12.61,12.61,0,0,1,9.45,3.79q3.66,3.8,3.67,10.47a18.47,18.47,0,0,1-1.63,8.52,11.4,11.4,0,0,1-4.72,4.81,13.71,13.71,0,0,1-6.77,1.72,12.62,12.62,0,0,1-9.52-3.77Q369.57,227.41,369.57,220.31Zm4.88,0q0,5.38,2.35,8.06a7.82,7.82,0,0,0,11.8,0c1.57-1.8,2.35-4.53,2.35-8.21,0-3.47-.78-6.1-2.36-7.88a7.84,7.84,0,0,0-11.79,0Q374.45,214.92,374.45,220.31Z"/><path class="cls-1" d="M402.06,234.33v-28h4.28v4a10.07,10.07,0,0,1,8.92-4.62,11.84,11.84,0,0,1,4.66.91A7.35,7.35,0,0,1,423.1,209a9.09,9.09,0,0,1,1.48,3.52,26.9,26.9,0,0,1,.26,4.62v17.24h-4.75V217.27a12.82,12.82,0,0,0-.55-4.34,4.58,4.58,0,0,0-2-2.3,6.28,6.28,0,0,0-3.31-.86A7.67,7.67,0,0,0,409,211.7c-1.47,1.29-2.21,3.72-2.21,7.31v15.32Z"/><path class="cls-1" d="M451.08,230.87A17.71,17.71,0,0,1,446,234a14.76,14.76,0,0,1-5.24.92c-3.08,0-5.44-.75-7.1-2.26a7.45,7.45,0,0,1-2.48-5.77,7.63,7.63,0,0,1,.94-3.76,7.79,7.79,0,0,1,2.45-2.73,11.36,11.36,0,0,1,3.42-1.56,35.38,35.38,0,0,1,4.23-.71,43.09,43.09,0,0,0,8.47-1.64c0-.65,0-1.06,0-1.24,0-1.93-.45-3.3-1.35-4.09a7.91,7.91,0,0,0-5.41-1.61,8.4,8.4,0,0,0-4.95,1.17,7.23,7.23,0,0,0-2.37,4.16l-4.64-.63a11.56,11.56,0,0,1,2.08-4.82,9.19,9.19,0,0,1,4.2-2.83,18.73,18.73,0,0,1,6.37-1,16.91,16.91,0,0,1,5.83.85,6.64,6.64,0,0,1,4.78,5.36,26.48,26.48,0,0,1,.24,4.38v6.34a68,68,0,0,0,.3,8.38,10.56,10.56,0,0,0,1.2,3.37h-5A10.16,10.16,0,0,1,451.08,230.87Zm-.4-10.62a34.24,34.24,0,0,1-7.76,1.8,18.09,18.09,0,0,0-4.15.95,4.1,4.1,0,0,0-1.87,1.55,4.19,4.19,0,0,0,.78,5.42,6.16,6.16,0,0,0,4.21,1.27,9.78,9.78,0,0,0,4.88-1.2,7.4,7.4,0,0,0,3.15-3.29,11.49,11.49,0,0,0,.76-4.75Z"/><path class="cls-1" d="M463.4,234.33V195.62h4.75v38.71Z"/><path class="cls-1" d="M107.34,140.13c-9.76,0-13.82,6.47-13.82,15.44v35.91c0,8.93,4.44,9.46,9.11,9.46s9.29-6.79,11.61-16.29c1.07-4.33,6.86-27.36,34.82-27.36s36.87,25.25,37.66,29.69c1.68,9.37,6.23,14.25,10.89,14.25s7.77-.82,7.77-9.75V155.57c0-9-4.81-15.3-14.16-15.44Z"/><path class="cls-1" d="M135,184.46a8.95,8.95,0,1,0-8.94-9,9,9,0,0,0,8.94,9"/><path class="cls-1" d="M161.37,197.41s-6.33,8.49-8.45,12.21-5,9.27,4.78,9.54a47.3,47.3,0,0,0,19-3.07c4.24-1.55,5.19-3.36,2.78-8.53a88.53,88.53,0,0,0-7.35-11.95c-5-6.76-7.43-2.25-10.77,1.8"/><path class="cls-1" d="M90.87,218.31s10.91-7.66,14.08-9.48,5.44-2.67,10,.5S141.53,225,160.47,225c15.4,0,24.05-5.36,29.25-8.48,3.2-2,8.55-7.08,17.91-3.57v17.94l-6.86.91v-2.24h-4.48v-4.51a2.25,2.25,0,0,0-4.5,0v4.51h-2.73v-4.46h1.61l0-1.09L189,224v-1.73h-1.08V224h-1.73v1.12l1.73-.05v4.51h-2.81v-4.51a2.24,2.24,0,0,0-4.48,0v4.51h-2.28v4.47h-2.21v-2.23h-2.25v2.23h-2.25v-4.47h2.25l-2.25-2.23h-11.2l-2.25,2.23h2.25v4.47h-4.48v-4.47H149.2v4.47H147v-2.23h-2.25v-4.47h-4.47v4.47H138v2.23h-4.45v-4.47l-6.73-2.23v2.23l-4.48-2.23v2.23l-4.48-2.23v2.23h-4.49l-1-13.45h-2.2l-1.31,13.45-4.48-2.23v2.23H97.6v4.47l-6.73,0Z"/><path class="cls-2" d="M106.2,270.9c.8.68,1.65,1.36,2.5,2L123,261.83c-1.11-.08-2.28-.16-3.48-.21C112.12,266.74,106.2,270.9,106.2,270.9Z"/><path class="cls-2" d="M97.67,261.33c.55.81,1.15,1.63,1.77,2.48l5.73-2.6a18.39,18.39,0,0,1-5.41-.73c-1.35.53-2.09.85-2.09.85"/><path class="cls-2" d="M118.21,278.79c1.14.52,2.28,1.06,3.45,1.57L134,263c-.81-.12-1.72-.26-2.64-.36Z"/><path class="cls-1" d="M199.59,263.77c.63-.81,1.23-1.63,1.79-2.44l-9.3-3.71a9.12,9.12,0,0,1,2.1,3.73Z"/><path class="cls-1" d="M132.67,283.9c1.14.24,2.28.51,3.4.72l6.3-19.92c-.64-.15-1.31-.36-2.12-.52C136.48,274.13,132.67,283.9,132.67,283.9Z"/><path class="cls-1" d="M207.74,240.79H91.26a22.23,22.23,0,0,0,.15,2.84l54.81-2.5c0,.15-53.64,9.17-53.64,9.17.29,1.06.65,2,1,3.08l52.77-11.63c0,.07-5.44,2.28-12.73,5.2,1.22-.13,2.45-.24,3.73-.34l9.34-4.23s-2.17,1.62-5.53,4c.55,0,1.19,0,1.77-.09l4.33-3.37c0,.06-1,1.31-2.57,3.34a9.8,9.8,0,0,1,1.35-.06l2-2.81a28,28,0,0,1-1,2.81h1.06l.81-2.57a14.33,14.33,0,0,1,0,2.57h1.15c-.05-1.62-.07-2.58-.05-2.58l.86,2.58c.36,0,.7.06,1.07.08-.65-1.8-1-2.89-1-2.89l2.06,2.89c.43,0,.89.06,1.36.09-1.68-2.11-2.71-3.39-2.7-3.45l4.52,3.54c.66,0,1.32.05,2,.14-3.54-2.52-5.88-4.19-5.86-4.23L162.59,247c1.5.19,3,.4,4.54.62-8.1-3.26-14.47-5.82-14.45-5.89l52.78,11.63c.37-1,.69-2.07,1-3.08,0,0-53.61-9-53.61-9.17l54.81,2.5c.07-.93.11-1.88.11-2.84"/><path class="cls-2" d="M147.26,285.75c.76,0,3.78,0,4.52,0,0,0-.23-5.24-.54-12.12a43.11,43.11,0,0,0-3.22-4.8C147.66,277.85,147.26,285.75,147.26,285.75Z"/><path class="cls-1" d="M167.13,247.64c8.09,3.25,17.93,7.16,25,10-4.43-5.11-14.26-8.31-25-10"/><path class="cls-2" d="M143,246.3l-20,15.53c3.11.25,6,.55,8.42.85,5.05-6.16,10.31-12.62,13.33-16.41l-1.76,0"/><path class="cls-1" d="M137.37,246.61l-32.2,14.6h.46c5.05,0,9.68.14,13.85.41,7.37-5.18,16.14-11.3,21.7-15.23-1.29.08-2.59.11-3.81.22"/><path class="cls-2" d="M100.3,255.11c-3.59,1.81-4,4.18-.54,5.37,5.76-2.28,22.15-8.82,33.88-13.53-19.72,2-31.9,7.42-33.34,8.16"/><path class="cls-2" d="M150.11,246.22c.16,5.37.69,17.9,1.13,27.41a38.75,38.75,0,0,1,2.94,6c1.51,4.23,4.55,4.69,6.11,4.65a17.5,17.5,0,0,0,2.43-.42l-11.8-37.66Z"/><path class="cls-2" d="M152,246.29c3.09,8.32,12.29,32.15,14.08,36.79a98.48,98.48,0,0,0,10.8-3.48l-23.82-33.31Z"/><path class="cls-1" d="M154.39,246.38c6.51,8.06,22.87,28,25.93,31.81a41,41,0,0,0,9.47-5.69l-33.56-26c-.59,0-1.22-.08-1.84-.09"/><path class="cls-1" d="M148.15,246.2l-5.78,18.5a10.9,10.9,0,0,1,2.13.77,11.45,11.45,0,0,1,3.52,3.36c.38-8.59.77-18.13.94-22.63Z"/><path class="cls-1" d="M158.19,246.61c10,7,29.63,20.74,33.85,23.7a10.62,10.62,0,0,0,2.29-4.32,8.62,8.62,0,0,0-.15-4.64L162.59,247c-1.48-.15-2.94-.27-4.4-.41"/><path class="cls-2" d="M146.06,246.22,134,263q3.73.57,6.23,1.16c2.72-7.06,5.44-14.14,6.84-18Z"/><path class="cls-1" d="M86.42,151.08c0-11.2,6.72-17.92,17.93-17.92H194c11.21,0,17.94,6.72,17.94,17.92v43H227.9c.22-35.22,2.15-53.35,2.15-53.35,0-16.18-11.33-25.51-27-25.51H95.39c-15.72,0-27.55,9.26-27.56,25.51,0,0,1.64,18.19,2.07,53.29H86.42Z"/><path class="cls-1" d="M212,208v44c0,29.19-18.06,42.66-62.78,42.66s-62.78-18-62.78-44.87V208H70c-.13,20.16-1.5,46.28-1.5,46.28,0,40.41,20.19,62.8,80.74,62.8s80.72-22.39,80.72-62.8c0,0-1.64-25.82-2-46.22Z"/><path class="cls-1" d="M279.76,297.23V293.7a8.72,8.72,0,0,1-7.84,4.17,11,11,0,0,1-6.17-1.85,12.15,12.15,0,0,1-4.35-5.16,17.85,17.85,0,0,1-1.55-7.62,20,20,0,0,1,1.4-7.62,11,11,0,0,1,4.2-5.24,11.27,11.27,0,0,1,6.26-1.82,9.34,9.34,0,0,1,7.73,3.86V258.53h4.73v38.7Zm-15-14c0,3.59.75,6.28,2.27,8.05a6.84,6.84,0,0,0,5.36,2.67,6.72,6.72,0,0,0,5.29-2.55q2.18-2.55,2.18-7.77,0-5.76-2.22-8.45a6.8,6.8,0,0,0-5.46-2.69,6.6,6.6,0,0,0-5.3,2.58Q264.75,277.68,264.74,283.24Z"/><path class="cls-1" d="M311.48,288.2l4.91.61a11.91,11.91,0,0,1-4.3,6.68,12.9,12.9,0,0,1-8,2.38q-6.15,0-9.75-3.79t-3.6-10.63q0-7.08,3.64-11a12.32,12.32,0,0,1,9.45-3.91,12,12,0,0,1,9.19,3.83q3.57,3.83,3.56,10.77c0,.28,0,.71,0,1.27H295.62q.25,4.62,2.61,7.07a7.78,7.78,0,0,0,5.86,2.46,7.3,7.3,0,0,0,4.46-1.37A9.08,9.08,0,0,0,311.48,288.2Zm-15.6-7.68h15.66a9.47,9.47,0,0,0-1.8-5.31,7.28,7.28,0,0,0-5.89-2.74,7.55,7.55,0,0,0-5.5,2.19A8.68,8.68,0,0,0,295.88,280.52Z"/><path class="cls-1" d="M337.55,284.8l4.83-.42a10.63,10.63,0,0,0,1.6,4.76,8.64,8.64,0,0,0,3.89,3,14.67,14.67,0,0,0,5.94,1.15,14.31,14.31,0,0,0,5.18-.87,7.27,7.27,0,0,0,3.34-2.39,5.54,5.54,0,0,0,1.09-3.31,5,5,0,0,0-1.06-3.19,7.86,7.86,0,0,0-3.48-2.28q-1.56-.6-6.89-1.89a35.24,35.24,0,0,1-7.47-2.41,10.4,10.4,0,0,1-4.13-3.61,8.79,8.79,0,0,1-1.37-4.81,9.81,9.81,0,0,1,1.67-5.48,10.3,10.3,0,0,1,4.86-3.87,18.4,18.4,0,0,1,7.1-1.32,19.47,19.47,0,0,1,7.59,1.38,11,11,0,0,1,5.06,4.08,11.84,11.84,0,0,1,1.9,6.1l-4.91.37a8,8,0,0,0-2.68-5.54q-2.3-1.87-6.75-1.88-4.65,0-6.77,1.71a5.09,5.09,0,0,0-2.13,4.1,4.37,4.37,0,0,0,1.51,3.43c1,.9,3.56,1.82,7.72,2.76a51.45,51.45,0,0,1,8.57,2.47,11.83,11.83,0,0,1,5,3.95,9.64,9.64,0,0,1,1.61,5.5,10.57,10.57,0,0,1-1.77,5.83,11.7,11.7,0,0,1-5.08,4.25,17.76,17.76,0,0,1-7.46,1.51,22.33,22.33,0,0,1-8.81-1.53,12.37,12.37,0,0,1-5.57-4.6A13.11,13.11,0,0,1,337.55,284.8Z"/><path class="cls-1" d="M393.69,293.78a17.62,17.62,0,0,1-5.08,3.16,14.59,14.59,0,0,1-5.24.93q-4.62,0-7.1-2.26a7.43,7.43,0,0,1-2.48-5.77,7.77,7.77,0,0,1,3.39-6.49,11.36,11.36,0,0,1,3.42-1.56,33.53,33.53,0,0,1,4.22-.71,44,44,0,0,0,8.48-1.64c0-.65,0-1.07,0-1.24,0-1.94-.45-3.3-1.34-4.09a7.94,7.94,0,0,0-5.42-1.61,8.44,8.44,0,0,0-4.95,1.17,7.19,7.19,0,0,0-2.36,4.16l-4.65-.63a11.57,11.57,0,0,1,2.09-4.82,9.12,9.12,0,0,1,4.2-2.83,18.71,18.71,0,0,1,6.36-1,16.73,16.73,0,0,1,5.84.85,7.76,7.76,0,0,1,3.3,2.12,7.51,7.51,0,0,1,1.47,3.24,26.48,26.48,0,0,1,.24,4.38v6.34a65.25,65.25,0,0,0,.31,8.38,10.42,10.42,0,0,0,1.2,3.36h-5A10,10,0,0,1,393.69,293.78Zm-.39-10.62a35.05,35.05,0,0,1-7.77,1.8,18,18,0,0,0-4.14,1,4.09,4.09,0,0,0-1.87,1.54,4,4,0,0,0-.67,2.26,4.05,4.05,0,0,0,1.44,3.17,6.24,6.24,0,0,0,4.22,1.26,9.81,9.81,0,0,0,4.88-1.2,7.41,7.41,0,0,0,3.14-3.28,11.52,11.52,0,0,0,.77-4.76Z"/><path class="cls-1" d="M406.12,297.23v-28h4.28v4a10.06,10.06,0,0,1,8.92-4.62,11.67,11.67,0,0,1,4.66.91,7.35,7.35,0,0,1,3.18,2.39,9.27,9.27,0,0,1,1.48,3.51,28,28,0,0,1,.26,4.62v17.24h-4.75V280.18a12.74,12.74,0,0,0-.55-4.34,4.58,4.58,0,0,0-2-2.3,6.28,6.28,0,0,0-3.31-.86,7.65,7.65,0,0,0-5.24,1.93q-2.2,1.92-2.21,7.31v15.31Z"/><path class="cls-1" d="M452.91,297.23v-38.7H458v34.14h19.06v4.56Z"/><path class="cls-1" d="M501.61,297.23v-4.11a10.29,10.29,0,0,1-8.9,4.75,11.35,11.35,0,0,1-4.63-.95,7.69,7.69,0,0,1-3.2-2.39,9,9,0,0,1-1.46-3.53,23.52,23.52,0,0,1-.29-4.43V269.2h4.75v15.55a27,27,0,0,0,.29,5,5,5,0,0,0,1.9,2.95,5.9,5.9,0,0,0,3.59,1.07,7.81,7.81,0,0,0,4-1.1,6.14,6.14,0,0,0,2.66-3,15,15,0,0,0,.78-5.48v-15h4.75v28Z"/><path class="cls-1" d="M514,264v-5.46h4.75V264Zm0,33.24v-28h4.75v28Z"/><path class="cls-1" d="M524.71,288.86l4.7-.73a6.6,6.6,0,0,0,2.21,4.33,7.68,7.68,0,0,0,5,1.5,7.4,7.4,0,0,0,4.86-1.33,4,4,0,0,0,1.59-3.13,2.9,2.9,0,0,0-1.4-2.54,20.82,20.82,0,0,0-4.86-1.61,44.67,44.67,0,0,1-7.25-2.28,6.93,6.93,0,0,1-3.06-2.67,7,7,0,0,1-1-3.76,7.22,7.22,0,0,1,.86-3.47,7.55,7.55,0,0,1,2.34-2.65,9.79,9.79,0,0,1,3-1.39,14.38,14.38,0,0,1,4.11-.57,16.27,16.27,0,0,1,5.79.95,7.91,7.91,0,0,1,3.69,2.58,10.08,10.08,0,0,1,1.63,4.34l-4.64.63a5.1,5.1,0,0,0-1.84-3.38,6.7,6.7,0,0,0-4.29-1.21c-2.18,0-3.74.36-4.67,1.08a3.16,3.16,0,0,0-1.4,2.54,2.6,2.6,0,0,0,.58,1.66A4.24,4.24,0,0,0,532.5,279c.48.17,1.88.58,4.2,1.21a57.46,57.46,0,0,1,7,2.21,7.11,7.11,0,0,1,3.12,2.49A7,7,0,0,1,548,289a7.93,7.93,0,0,1-1.39,4.47,8.93,8.93,0,0,1-4,3.25,14.46,14.46,0,0,1-5.91,1.15q-5.46,0-8.33-2.27A10.59,10.59,0,0,1,524.71,288.86Z"/></svg>